<?xml version="1.0" encoding="utf-8"?>
<!-- Generator: Adobe Illustrator 28.1.0, SVG Export Plug-In . SVG Version: 6.00 Build 0)  -->
<svg version="1.1" id="Layer_1" xmlns="http://www.w3.org/2000/svg" xmlns:xlink="http://www.w3.org/1999/xlink" x="0px" y="0px"
	 viewBox="0 0 837 501" style="enable-background:new 0 0 837 501;" xml:space="preserve">
<style type="text/css">
	.st0{fill:none;stroke:#000000;}
	.st1{font-family:'ArialMT';}
	.st2{font-size:10px;}
	.st3{fill:#7B7B7B;}
	.st4{font-family:'Arial-BoldMT';}
	.st5{font-size:12px;}
	.st6{fill:none;stroke:#1F77B4;stroke-dasharray:4;}
	.st7{fill:none;stroke:#1F77B4;}
	.st8{fill:#1F77B4;}
	.st9{fill:none;stroke:#FFFFFF;}
	.st10{fill:none;stroke:#D62728;stroke-dasharray:4;}
	.st11{fill:none;stroke:#D62728;}
	.st12{fill:#D62728;}
	.st13{fill:none;stroke:#2CA02C;stroke-dasharray:4;}
	.st14{fill:none;stroke:#2CA02C;}
	.st15{fill:#2CA02C;}
	.st16{fill:#FFFFFF;stroke:#2CA02C;}
	.st17{fill:none;stroke:#8C564B;stroke-dasharray:4;}
	.st18{fill:none;stroke:#8C564B;}
	.st19{fill:#8C564B;}
	.st20{fill:#FFFFFF;stroke:#8C564B;}
	.st21{fill:none;stroke:#FF7F0E;stroke-dasharray:4;}
	.st22{fill:none;stroke:#FF7F0E;}
	.st23{fill:#FF7F0E;}
	.st24{fill:#FFFFFF;stroke:#FF7F0E;}
	.st25{fill:none;stroke:#9467BD;stroke-dasharray:4;}
	.st26{fill:none;stroke:#9467BD;}
	.st27{fill:#9467BD;}
</style>
<g id="viz" transform="translate(50,10)">
	<g id="y_axis">
		<path class="st0" d="M-6,377h6V17h-6"/>
		<g transform="translate(0,360)">
			<line class="st0" x1="0" y1="17" x2="-6" y2="17"/>
			<text transform="matrix(1 0 0 1 -22.9014 20.2)" class="st1 st2">4.0</text>
		</g>
		<g transform="translate(0,335.99999999999994)">
			<line class="st0" x1="0" y1="17" x2="-6" y2="17"/>
			<text transform="matrix(1 0 0 1 -22.9014 20.2)" class="st1 st2">4.2</text>
		</g>
		<g transform="translate(0,311.99999999999994)">
			<line class="st0" x1="0" y1="17" x2="-6" y2="17"/>
			<text transform="matrix(1 0 0 1 -22.9014 20.2)" class="st1 st2">4.4</text>
		</g>
		<g transform="translate(0,288.00000000000006)">
			<line class="st0" x1="0" y1="17" x2="-6" y2="17"/>
			<text transform="matrix(1 0 0 1 -22.9014 20.2)" class="st1 st2">4.6</text>
		</g>
		<g transform="translate(0,264)">
			<line class="st0" x1="0" y1="17" x2="-6" y2="17"/>
			<text transform="matrix(1 0 0 1 -22.9014 20.2)" class="st1 st2">4.8</text>
		</g>
		<g transform="translate(0,240.00000000000003)">
			<line class="st0" x1="0" y1="17" x2="-6" y2="17"/>
			<text transform="matrix(1 0 0 1 -22.9014 20.2)" class="st1 st2">5.0</text>
		</g>
		<g transform="translate(0,215.99999999999994)">
			<line class="st0" x1="0" y1="17" x2="-6" y2="17"/>
			<text transform="matrix(1 0 0 1 -22.9014 20.2)" class="st1 st2">5.2</text>
		</g>
		<g transform="translate(0,191.99999999999994)">
			<line class="st0" x1="0" y1="17" x2="-6" y2="17"/>
			<text transform="matrix(1 0 0 1 -22.9014 20.2)" class="st1 st2">5.4</text>
		</g>
		<g transform="translate(0,168.00000000000006)">
			<line class="st0" x1="0" y1="17" x2="-6" y2="17"/>
			<text transform="matrix(1 0 0 1 -22.9014 20.2)" class="st1 st2">5.6</text>
		</g>
		<g transform="translate(0,144)">
			<line class="st0" x1="0" y1="17" x2="-6" y2="17"/>
			<text transform="matrix(1 0 0 1 -22.9014 20.2)" class="st1 st2">5.8</text>
		</g>
		<g transform="translate(0,120.00000000000001)">
			<line class="st0" x1="0" y1="17" x2="-6" y2="17"/>
			<text transform="matrix(1 0 0 1 -22.9014 20.2)" class="st1 st2">6.0</text>
		</g>
		<g transform="translate(0,95.99999999999997)">
			<line class="st0" x1="0" y1="17" x2="-6" y2="17"/>
			<text transform="matrix(1 0 0 1 -22.9014 20.2)" class="st1 st2">6.2</text>
		</g>
		<g transform="translate(0,71.99999999999994)">
			<line class="st0" x1="0" y1="17" x2="-6" y2="17"/>
			<text transform="matrix(1 0 0 1 -22.9014 20.2)" class="st1 st2">6.4</text>
		</g>
		<g transform="translate(0,48.00000000000003)">
			<line class="st0" x1="0" y1="17" x2="-6" y2="17"/>
			<text transform="matrix(1 0 0 1 -22.9014 20.2)" class="st1 st2">6.6</text>
		</g>
		<g transform="translate(0,24.000000000000036)">
			<line class="st0" x1="0" y1="17" x2="-6" y2="17"/>
			<text transform="matrix(1 0 0 1 -22.9014 20.2)" class="st1 st2">6.8</text>
		</g>
		<g transform="translate(0,0)">
			<line class="st0" x1="0" y1="17" x2="-6" y2="17"/>
			<text transform="matrix(1 0 0 1 -22.9014 20.2)" class="st1 st2">7.0</text>
		</g>
		<text transform="matrix(1 0 0 1 4 27.2949)" class="st3 st4 st5">nota_proyecto</text>
	</g>
	<g id="x_axis" transform="translate(0,360)">
		<path class="st0" d="M0,23v-6h740v6"/>
		<g transform="translate(63,0)">
			<line class="st0" x1="0" y1="17" x2="0" y2="23"/>
			<text transform="matrix(1.320204e-07 1 -1 1.320204e-07 -3.7061 25.8201)" class="st1 st2">Diseñador</text>
		</g>
		<g transform="translate(186,0)">
			<line class="st0" x1="0" y1="17" x2="0" y2="23"/>
			<text transform="matrix(-1.217659e-07 1 -1 -1.217659e-07 -2.0067 26.5896)" class="st1 st2">Diseñadora</text>
		</g>
		<g transform="translate(309,0)">
			<line class="st0" x1="0" y1="17" x2="0" y2="23"/>
			<text transform="matrix(1 0 0 1 -105.2466 33.1)" class="st1 st2">Diseñador con mención en Visualidad y Medios</text>
		</g>
		<g transform="translate(432,0)">
			<line class="st0" x1="0" y1="17" x2="0" y2="23"/>
			<text transform="matrix(1 0 0 1 -108.0273 33.1)" class="st1 st2">Diseñadora con mención en Visualidad y Medios</text>
		</g>
		<g transform="translate(555,0)">
			<line class="st0" x1="0" y1="17" x2="0" y2="23"/>
			<text transform="matrix(1 0 0 1 -99.7681 33.1)" class="st1 st2">Diseñador con mención Industrial y Servicios</text>
		</g>
		<g transform="translate(678,0)">
			<line class="st0" x1="0" y1="17" x2="0" y2="23"/>
			<text transform="matrix(1 0 0 1 -102.5488 33.1)" class="st1 st2">Diseñadora con mención Industrial y Servicios</text>
		</g>
	</g>
	<g id="boxplots">
		<g>
			<line class="st6" x1="63" y1="17" x2="63" y2="293"/>
			<line class="st7" x1="53" y1="17" x2="73" y2="17"/>
			<line class="st7" x1="53" y1="293" x2="73" y2="293"/>
			<rect x="53" y="113" class="st8" width="20" height="84"/>
			<line class="st9" x1="53" y1="137" x2="73" y2="137"/>
		</g>
		<g>
			<line class="st10" x1="186" y1="17" x2="186" y2="317"/>
			<line class="st11" x1="176" y1="17" x2="196" y2="17"/>
			<line class="st11" x1="176" y1="317" x2="196" y2="317"/>
			<rect x="176" y="59" class="st12" width="20" height="120"/>
			<line class="st9" x1="176" y1="137" x2="196" y2="137"/>
		</g>
		<g>
			<line class="st13" x1="309" y1="77" x2="309" y2="287"/>
			<line class="st14" x1="299" y1="77" x2="319" y2="77"/>
			<line class="st14" x1="299" y1="287" x2="319" y2="287"/>
			<rect x="299" y="137" class="st15" width="20" height="60"/>
			<line class="st9" x1="299" y1="161" x2="319" y2="161"/>
			<circle class="st16" cx="309" cy="317" r="1"/>
			<circle class="st16" cx="309" cy="317" r="1"/>
			<circle class="st16" cx="309" cy="377" r="1"/>
		</g>
		<g>
			<line class="st17" x1="432" y1="17" x2="432" y2="362"/>
			<line class="st18" x1="422" y1="17" x2="442" y2="17"/>
			<line class="st18" x1="422" y1="362" x2="442" y2="362"/>
			<rect x="422" y="77" class="st19" width="20" height="114"/>
			<line class="st9" x1="422" y1="137" x2="442" y2="137"/>
			<circle class="st20" cx="432" cy="377" r="1"/>
			<circle class="st20" cx="432" cy="377" r="1"/>
		</g>
		<g>
			<line class="st21" x1="555" y1="44" x2="555" y2="260"/>
			<line class="st22" x1="545" y1="44" x2="565" y2="44"/>
			<line class="st22" x1="545" y1="260" x2="565" y2="260"/>
			<rect x="545" y="125" class="st23" width="20" height="54"/>
			<line class="st9" x1="545" y1="149" x2="565" y2="149"/>
			<circle class="st24" cx="555" cy="317" r="1"/>
			<circle class="st24" cx="555" cy="41" r="1"/>
		</g>
		<g>
			<line class="st25" x1="678" y1="17" x2="678" y2="377"/>
			<line class="st26" x1="668" y1="17" x2="688" y2="17"/>
			<line class="st26" x1="668" y1="377" x2="688" y2="377"/>
			<rect x="668" y="59" class="st27" width="20" height="138"/>
			<line class="st9" x1="668" y1="137" x2="688" y2="137"/>
		</g>
	</g>
	<g id="boxplots_00000149341804566070290300000000563967493927899285_">
		<g>
			<text transform="matrix(1 0 0 1 77 17)" class="st1 st2">7</text>
			<text transform="matrix(1 0 0 1 77 293)" class="st1 st2">4.7</text>
			<text transform="matrix(1 0 0 1 77 137)" class="st1 st2">6</text>
			<text transform="matrix(1 0 0 1 35.0986 197)" class="st1 st2">5.5</text>
			<text transform="matrix(1 0 0 1 45.0986 113)" class="st1 st2">6.2</text>
		</g>
		<g>
			<text transform="matrix(1 0 0 1 200 17)" class="st1 st2">7</text>
			<text transform="matrix(1 0 0 1 200 317)" class="st1 st2">4.5</text>
			<text transform="matrix(1 0 0 1 200 137)" class="st1 st2">6</text>
			<text transform="matrix(1 0 0 1 152.5371 179)" class="st1 st2">5.65</text>
			<text transform="matrix(1 0 0 1 162.5371 59)" class="st1 st2">6.65</text>
		</g>
		<g>
			<text transform="matrix(1 0 0 1 323 77)" class="st1 st2">6.5</text>
			<text transform="matrix(1 0 0 1 323 287)" class="st1 st2">4.75</text>
			<text transform="matrix(1 0 0 1 323 161)" class="st1 st2">5.8</text>
			<text transform="matrix(1 0 0 1 281.0986 197)" class="st1 st2">5.5</text>
			<text transform="matrix(1 0 0 1 299.4385 137)" class="st1 st2">6</text>
		</g>
		<g>
			<text transform="matrix(1 0 0 1 446 17)" class="st1 st2">7</text>
			<text transform="matrix(1 0 0 1 446 362)" class="st1 st2">4.125</text>
			<text transform="matrix(1 0 0 1 446 137)" class="st1 st2">6</text>
			<text transform="matrix(1 0 0 1 398.5371 191)" class="st1 st2">5.55</text>
			<text transform="matrix(1 0 0 1 414.0986 77)" class="st1 st2">6.5</text>
		</g>
		<g>
			<text transform="matrix(1 0 0 1 569 44)" class="st1 st2">6.774999999999999</text>
			<text transform="matrix(1 0 0 1 569 260)" class="st1 st2">4.975000000000001</text>
			<text transform="matrix(1 0 0 1 569 149)" class="st1 st2">5.9</text>
			<text transform="matrix(1 0 0 1 521.5371 179)" class="st1 st2">5.65</text>
			<text transform="matrix(1 0 0 1 537.0986 125)" class="st1 st2">6.1</text>
		</g>
		<g>
			<text transform="matrix(1 0 0 1 692 17)" class="st1 st2">7</text>
			<text transform="matrix(1 0 0 1 692 377)" class="st1 st2">4</text>
			<text transform="matrix(1 0 0 1 692 137)" class="st1 st2">6</text>
			<text transform="matrix(1 0 0 1 650.0986 197)" class="st1 st2">5.5</text>
			<text transform="matrix(1 0 0 1 654.5371 59)" class="st1 st2">6.65</text>
		</g>
	</g>
</g>
</svg>
