<?xml version="1.0" encoding="utf-8"?>
<!-- Generator: Adobe Illustrator 28.1.0, SVG Export Plug-In . SVG Version: 6.00 Build 0)  -->
<svg version="1.1" id="Layer_1" xmlns="http://www.w3.org/2000/svg" xmlns:xlink="http://www.w3.org/1999/xlink" x="0px" y="0px"
	 viewBox="0 0 1000.1 600" style="enable-background:new 0 0 1000.1 600;" xml:space="preserve">
<style type="text/css">
	.st0{fill:#FFFFFF;}
	.st1{fill:#B690F6;}
	.st2{fill:#9F2559;}
	.st3{fill:none;stroke:#000000;}
	.st4{font-family:'ArialMT';}
	.st5{font-size:10px;}
	.st6{fill:#7B7B7B;}
	.st7{font-family:'Arial-BoldMT';}
	.st8{font-size:12px;}
	.st9{fill:none;stroke:#CCCCCC;}
</style>
<path id="background" class="st0" d="M0,0L0,0L0,0z"/>
<g id="viz">
	<g transform="translate(0,0)">
		<g transform="translate(50,20)">
			<g>
				<rect id="undefined_-_Aprueban" x="31" y="536.1" class="st1" width="47.6" height="24"/>
				<rect id="undefined_-_Reprueban" x="80.5" y="352" class="st2" width="47.5" height="208.1"/>
				
					<rect id="undefined_-_Aprueban_00000056393222082768481250000003894777626627874989_" x="161.2" y="479.9" class="st1" width="47.5" height="79.9"/>
				
					<rect id="undefined_-_Reprueban_00000180362001618465463730000006977222647342178223_" x="210.7" y="288" class="st2" width="47.5" height="272"/>
				
					<rect id="undefined_-_Aprueban_00000067203786514739733860000014763354655192036235_" x="291.2" y="472" class="st1" width="47.5" height="88.1"/>
				
					<rect id="undefined_-_Reprueban_00000044878162017268636210000002073443383362828476_" x="340.9" y="88" class="st2" width="47.5" height="472.1"/>
				
					<rect id="undefined_-_Aprueban_00000116920957797048414680000006609660935594867615_" x="421.4" y="400" class="st1" width="47.6" height="160.1"/>
				
					<rect id="undefined_-_Reprueban_00000067919136248017583530000011438121271993360306_" x="470.9" y="184" class="st2" width="47.6" height="376.1"/>
				
					<rect id="undefined_-_Aprueban_00000111894173940669692680000000936051129206081444_" x="551.5" y="120" class="st1" width="47.6" height="439.9"/>
				
					<rect id="undefined_-_Reprueban_00000086662881375770828720000014065327160018270892_" x="601.2" y="216" class="st2" width="47.6" height="344"/>
				
					<rect id="undefined_-_Aprueban_00000170242406217540353800000007993671072098961315_" x="681.7" y="248" class="st1" width="47.6" height="312"/>
				
					<rect id="undefined_-_Reprueban_00000166659572523805295680000010640342020752833938_" x="731.2" y="392" class="st2" width="47.6" height="168"/>
				
					<rect id="undefined_-_Aprueban_00000095305890142490476830000014778111638165026714_" x="811.8" y="8.1" class="st1" width="47.6" height="552"/>
				
					<rect id="undefined_-_Reprueban_00000130624365262276542030000017073030661213907329_" x="861.4" y="152" class="st2" width="47.6" height="408"/>
			</g>
			<g id="xAxis" transform="translate(0,560)">
				<path class="st3" d="M0.5,0.5h940.1"/>
				<g transform="translate(79.60235640648008,0)">
					<line class="st3" x1="0" y1="0" x2="0" y2="6"/>
					<text transform="matrix(1 0 0 1 -15.5773 16.1006)" class="st4 st5">2021-2</text>
				</g>
				<g transform="translate(209.73490427098673,0)">
					<line class="st3" x1="0" y1="0" x2="0" y2="6"/>
					<text transform="matrix(1 0 0 1 -15.5765 16.1006)" class="st4 st5">2022-1</text>
				</g>
				<g transform="translate(339.8674521354934,0)">
					<line class="st3" x1="-0.1" y1="0" x2="-0.1" y2="6"/>
					<text transform="matrix(1 0 0 1 -15.5772 16.1006)" class="st4 st5">2022-2</text>
				</g>
				<g transform="translate(470.00000000000006,0)">
					<line class="st3" x1="0" y1="0" x2="0" y2="6"/>
					<text transform="matrix(1 0 0 1 -15.577 16.1006)" class="st4 st5">2023-1</text>
				</g>
				<g transform="translate(600.1325478645066,0)">
					<line class="st3" x1="0" y1="0" x2="0" y2="6"/>
					<text transform="matrix(1 0 0 1 -15.5777 16.1006)" class="st4 st5">2023-2</text>
				</g>
				<g transform="translate(730.2650957290133,0)">
					<line class="st3" x1="0" y1="0" x2="0" y2="6"/>
					<text transform="matrix(1 0 0 1 -15.5774 16.1006)" class="st4 st5">2024-1</text>
				</g>
				<g transform="translate(860.39764359352,0)">
					<line class="st3" x1="-0.1" y1="0" x2="-0.1" y2="6"/>
					<text transform="matrix(1 0 0 1 -15.5771 16.1006)" class="st4 st5">2024-2</text>
				</g>
			</g>
			<g id="yAxis">
				<path class="st3" d="M0.5,560.5V0.5"/>
				<g transform="translate(0,560.5)">
					<line class="st3" x1="0" y1="0" x2="-6.1" y2="0"/>
					<text transform="matrix(1 0 0 1 -14.5701 3.1997)" class="st4 st5">0</text>
				</g>
				<g transform="translate(0,520.5)">
					<line class="st3" x1="0" y1="0" x2="-6.1" y2="0"/>
					<text transform="matrix(1 0 0 1 -14.5701 3.2007)" class="st4 st5">5</text>
				</g>
				<g transform="translate(0,480.50000000000006)">
					<line class="st3" x1="0" y1="0" x2="-6.1" y2="0"/>
					<text transform="matrix(1 0 0 1 -20.1307 3.2002)" class="st4 st5">10</text>
				</g>
				<g transform="translate(0,440.5)">
					<line class="st3" x1="0" y1="0" x2="-6.1" y2="0"/>
					<text transform="matrix(1 0 0 1 -20.1307 3.1997)" class="st4 st5">15</text>
				</g>
				<g transform="translate(0,400.5)">
					<line class="st3" x1="0" y1="0" x2="-6.1" y2="0"/>
					<text transform="matrix(1 0 0 1 -20.1307 3.2007)" class="st4 st5">20</text>
				</g>
				<g transform="translate(0,360.49999999999994)">
					<line class="st3" x1="0" y1="0" x2="-6.1" y2="0"/>
					<text transform="matrix(1 0 0 1 -20.1307 3.2002)" class="st4 st5">25</text>
				</g>
				<g transform="translate(0,320.5)">
					<line class="st3" x1="0" y1="0" x2="-6.1" y2="0"/>
					<text transform="matrix(1 0 0 1 -20.1307 3.1997)" class="st4 st5">30</text>
				</g>
				<g transform="translate(0,280.5)">
					<line class="st3" x1="0" y1="0" x2="-6.1" y2="0"/>
					<text transform="matrix(1 0 0 1 -20.1307 3.2007)" class="st4 st5">35</text>
				</g>
				<g transform="translate(0,240.50000000000003)">
					<line class="st3" x1="0" y1="0" x2="-6.1" y2="0"/>
					<text transform="matrix(1 0 0 1 -20.1307 3.2002)" class="st4 st5">40</text>
				</g>
				<g transform="translate(0,200.49999999999997)">
					<line class="st3" x1="0" y1="0" x2="-6.1" y2="0"/>
					<text transform="matrix(1 0 0 1 -20.1307 3.1997)" class="st4 st5">45</text>
				</g>
				<g transform="translate(0,160.5)">
					<line class="st3" x1="0" y1="-0.1" x2="-6.1" y2="-0.1"/>
					<text transform="matrix(1 0 0 1 -20.1307 3.2007)" class="st4 st5">50</text>
				</g>
				<g transform="translate(0,120.50000000000001)">
					<line class="st3" x1="0" y1="0.1" x2="-6.1" y2="0.1"/>
					<text transform="matrix(1 0 0 1 -20.1307 3.2002)" class="st4 st5">55</text>
				</g>
				<g transform="translate(0,80.50000000000003)">
					<line class="st3" x1="0" y1="0" x2="-6.1" y2="0"/>
					<text transform="matrix(1 0 0 1 -20.1307 3.2007)" class="st4 st5">60</text>
				</g>
				<g transform="translate(0,40.499999999999986)">
					<line class="st3" x1="0" y1="-0.1" x2="-6.1" y2="-0.1"/>
					<text transform="matrix(1 0 0 1 -20.1307 3.2002)" class="st4 st5">65</text>
				</g>
				<g transform="translate(0,0.5)">
					<line class="st3" x1="0" y1="0" x2="-6.1" y2="0"/>
					<text transform="matrix(1 0 0 1 -20.1307 3.2002)" class="st4 st5">70</text>
				</g>
			</g>
			<text transform="matrix(1 0 0 1 914.6447 556.0005)" class="st6 st7 st8">Sets</text>
			<text transform="matrix(1 0 0 1 3.9924 10.2949)" class="st6 st7 st8">Value</text>
		</g>
	</g>
	<g id="grid">
		<rect class="st9" width="1000.1" height="600"/>
	</g>
</g>
</svg>
